<?xml version="1.0" standalone="no"?>
<!DOCTYPE svg PUBLIC "-//W3C//DTD SVG 20010904//EN"
 "http://www.w3.org/TR/2001/REC-SVG-20010904/DTD/svg10.dtd">
<svg version="1.0" xmlns="http://www.w3.org/2000/svg"
 width="1839.000000pt" height="1839.000000pt" viewBox="0 0 1839.000000 1839.000000"
 preserveAspectRatio="xMidYMid meet">
<metadata>
Created by potrace 1.14, written by Peter Selinger 2001-2017
</metadata>
<g transform="translate(0.000000,1839.000000) scale(0.100000,-0.100000)"
fill="#000000" stroke="none">
<path d="M9148 18385 c-2 -2 -37 -5 -78 -8 -75 -6 -200 -42 -275 -80 -119 -59
-259 -181 -335 -292 -47 -68 -97 -180 -121 -270 -31 -114 -31 -317 0 -430 24
-89 74 -201 122 -272 17 -27 87 -102 154 -168 96 -95 134 -140 178 -215 223
-375 262 -803 112 -1205 -62 -165 -142 -299 -231 -390 -69 -69 -99 -113 -140
-198 -101 -213 -81 -480 50 -677 42 -64 153 -169 219 -209 270 -160 614 -120
835 98 54 52 122 140 122 157 0 4 6 15 14 23 7 9 26 52 41 96 22 65 28 102 31
195 3 130 -15 222 -64 322 -15 31 -24 54 -20 52 20 -13 3 11 -46 63 -113 121
-174 207 -244 348 -35 72 -89 225 -98 280 -3 22 -8 43 -10 47 -25 40 -24 419
1 491 3 7 7 23 9 37 10 52 48 175 58 187 6 7 8 13 5 13 -11 0 85 185 135 259
28 42 77 106 109 142 32 37 55 69 52 73 -4 3 1 6 9 6 9 0 23 10 31 23 9 12 32
40 52 62 78 85 134 182 171 293 15 42 28 86 30 97 40 201 14 395 -76 575 -126
252 -402 446 -660 466 -36 3 -82 7 -102 8 -21 2 -39 2 -40 1z"/>
<path d="M12758 12926 c-1 -2 -28 -6 -58 -9 -148 -16 -302 -99 -395 -213 -209
-257 -184 -629 58 -850 205 -188 526 -211 755 -56 407 277 340 902 -115 1081
-62 24 -89 30 -163 37 -30 3 -60 7 -67 9 -6 2 -13 2 -15 1z"/>
<path d="M5565 12768 c-197 -30 -371 -157 -454 -331 -45 -95 -61 -155 -65
-252 -13 -336 242 -615 579 -632 188 -9 336 47 466 177 123 123 179 259 179
433 -1 159 -50 290 -155 408 -133 150 -350 228 -550 197z"/>
<path d="M9042 12094 c-225 -46 -388 -241 -397 -473 -5 -149 45 -280 144 -379
164 -164 423 -196 626 -77 65 37 150 131 185 201 189 384 -141 813 -558 728z"/>
<path d="M11410 11576 c-170 -56 -294 -182 -348 -356 -18 -56 -20 -170 -5
-245 20 -97 66 -178 144 -256 203 -203 517 -202 720 0 330 330 97 881 -371
879 -49 0 -98 -8 -140 -22z"/>
<path d="M6685 11485 c-99 -27 -160 -63 -236 -140 -96 -96 -147 -222 -147
-361 0 -132 44 -245 131 -341 68 -73 126 -111 221 -145 143 -49 309 -29 435
52 282 181 326 566 91 800 -103 103 -218 150 -365 149 -44 0 -102 -6 -130 -14z"/>
<path d="M10234 10261 c-157 -44 -273 -170 -301 -327 -30 -166 45 -339 185
-428 97 -61 241 -82 350 -51 295 85 404 449 204 681 -99 115 -283 168 -438
125z"/>
<path d="M7850 10213 c-73 -19 -136 -56 -191 -115 -190 -201 -134 -533 110
-658 236 -120 516 -11 600 233 13 36 19 82 19 138 0 158 -72 286 -203 364 -89
52 -223 67 -335 38z"/>
<path d="M1410 9491 c-343 -73 -599 -331 -675 -681 -16 -74 -14 -318 3 -360 5
-14 16 -45 23 -70 46 -159 169 -329 322 -443 92 -69 254 -134 377 -153 37 -6
216 -4 259 2 311 46 584 274 686 574 52 153 59 369 16 515 -88 298 -311 519
-613 606 -103 29 -284 34 -398 10z"/>
<path d="M16570 9486 c-300 -68 -539 -288 -634 -581 -27 -82 -46 -219 -41
-283 14 -168 37 -258 96 -374 115 -228 344 -402 599 -456 46 -9 294 -9 343 0
259 52 498 240 611 482 32 68 54 128 61 165 2 14 9 48 14 74 13 74 6 253 -14
332 -74 292 -287 523 -570 620 -135 46 -318 55 -465 21z"/>
<path d="M4015 9329 c-153 -19 -284 -86 -402 -204 -67 -68 -89 -99 -126 -176
-56 -118 -69 -169 -72 -291 -7 -271 137 -509 380 -632 93 -46 181 -68 287 -71
154 -4 276 32 403 116 288 193 390 565 239 875 -129 264 -416 419 -709 383z"/>
<path d="M14178 9335 c-2 -1 -28 -5 -58 -8 -144 -16 -266 -78 -405 -206 -99
-92 -136 -116 -311 -201 -103 -50 -270 -105 -352 -116 -26 -3 -67 -10 -91 -14
-58 -10 -276 -5 -366 9 -210 32 -401 109 -599 239 -114 75 -193 104 -296 108
-141 5 -263 -36 -359 -122 -251 -225 -218 -629 66 -810 28 -19 59 -34 67 -34
8 0 17 -4 20 -8 8 -13 111 -33 174 -34 112 -1 206 26 299 88 90 59 290 148
383 169 8 2 44 10 80 19 160 37 347 49 514 32 290 -28 609 -156 816 -327 211
-174 495 -215 740 -106 41 18 153 93 185 123 281 266 293 708 27 987 -95 99
-247 180 -377 201 -48 8 -152 15 -157 11z"/>
<path d="M6486 9125 c-131 -33 -263 -136 -321 -250 -34 -69 -31 -59 -49 -153
-25 -133 0 -256 74 -373 70 -107 208 -196 336 -215 206 -31 404 58 513 230
183 291 30 675 -304 763 -50 13 -193 12 -249 -2z"/>
<path d="M9055 8971 c-178 -47 -285 -209 -254 -386 30 -172 176 -284 354 -273
284 18 412 355 212 558 -80 80 -220 125 -312 101z"/>
<path d="M8028 7885 c-1 -1 -19 -5 -38 -8 -147 -22 -279 -141 -324 -295 -19
-67 -15 -190 9 -257 104 -291 478 -371 699 -149 98 98 141 283 98 414 -19 57
-70 138 -113 179 -39 37 -119 84 -169 100 -34 10 -155 23 -162 16z"/>
<path d="M10255 7760 c-54 -12 -99 -37 -141 -76 -120 -113 -125 -295 -11 -415
65 -68 125 -94 217 -94 91 1 145 23 208 84 135 132 120 347 -31 449 -71 47
-168 68 -242 52z"/>
<path d="M6938 6805 c-2 -2 -20 -6 -40 -9 -228 -36 -425 -283 -412 -516 2 -30
5 -92 8 -136 7 -109 -26 -219 -85 -286 -70 -78 -289 -145 -437 -132 -120 11
-279 -31 -381 -100 -270 -182 -352 -536 -190 -824 49 -86 161 -191 253 -236
122 -59 282 -81 399 -54 23 5 50 11 60 13 10 2 52 21 95 41 59 28 95 55 157
118 116 117 172 243 178 403 1 37 5 70 8 73 4 3 -2 37 -12 75 -22 79 -29 225
-16 300 14 82 53 143 111 172 104 52 123 56 363 68 186 8 323 78 422 215 130
180 128 441 -5 605 -86 107 -159 158 -270 191 -49 14 -197 28 -206 19z"/>
<path d="M11477 6714 c-1 -1 -16 -4 -34 -7 -111 -17 -215 -84 -283 -183 -79
-113 -92 -279 -32 -407 73 -156 220 -250 392 -248 258 2 456 246 407 501 -31
157 -166 300 -313 330 -47 10 -132 18 -137 14z"/>
<path d="M9118 6555 c-2 -2 -23 -5 -48 -8 -105 -12 -213 -70 -293 -157 -186
-200 -177 -515 20 -708 49 -47 150 -109 192 -117 9 -2 34 -8 56 -13 56 -15
167 -12 234 5 318 83 474 453 310 740 -63 110 -193 210 -314 241 -38 10 -151
22 -157 17z"/>
<path d="M12620 5723 c-215 -32 -414 -193 -488 -393 -75 -203 -35 -442 102
-606 130 -156 309 -233 511 -220 195 12 351 97 459 251 88 124 116 219 111
377 -3 112 -13 161 -52 243 -72 155 -211 275 -376 326 -58 18 -208 30 -267 22z"/>
<path d="M9137 4154 c-1 -1 -31 -5 -66 -8 -216 -23 -427 -172 -530 -374 -22
-43 -51 -126 -57 -162 -3 -14 -7 -32 -10 -40 -7 -18 -6 -175 1 -210 15 -79 30
-131 53 -180 95 -206 289 -360 505 -399 59 -11 213 -8 277 4 176 34 371 184
457 351 59 114 76 181 79 309 4 158 -27 268 -111 395 -111 167 -295 284 -481
306 -67 7 -114 11 -117 8z"/>
<path d="M9145 1733 c-308 -26 -544 -164 -703 -411 -130 -204 -165 -490 -87
-727 82 -250 289 -461 535 -547 151 -52 374 -60 520 -18 340 98 581 379 628
735 13 98 3 266 -19 306 -5 11 -7 19 -5 19 6 0 -40 124 -57 154 -6 12 -11 23
-12 26 0 3 -21 37 -47 76 -115 172 -291 299 -492 354 -74 21 -207 37 -261 33z"/>
</g>
</svg>
