<svg xmlns="http://www.w3.org/2000/svg" xmlns:xlink="http://www.w3.org/1999/xlink" width="138.76" height="136.256" viewBox="0 0 138.76 136.256">
  <defs>
    <clipPath id="clip-path">
      <rect id="Rectángulo_12" data-name="Rectángulo 12" width="114.282" height="80.451" fill="none"/>
    </clipPath>
  </defs>
  <g id="Grupo_22" data-name="Grupo 22" transform="translate(84.928 136.256) rotate(-138)">
    <g id="Grupo_21" data-name="Grupo 21" clip-path="url(#clip-path)">
      <path id="Trazado_36" data-name="Trazado 36" d="M65.992,62.533a90.875,90.875,0,0,1-28.567,8.907,108.312,108.312,0,0,1-24.171.721c1.6,1.005,2.74,1.707,3.862,2.433a31.036,31.036,0,0,1,2.859,1.937,1.978,1.978,0,0,1,.438,2.871,2.261,2.261,0,0,1-2.885.853,6.392,6.392,0,0,1-1.19-.626c-4.789-2.981-9.586-5.949-14.355-8.961-2.672-1.688-2.638-3.393.07-4.989,3.923-2.312,7.864-4.6,11.8-6.886a8.28,8.28,0,0,1,1.2-.612,2.29,2.29,0,0,1,3.042.862,2.05,2.05,0,0,1-.681,2.99c-1.418.98-2.95,1.806-4.437,2.69-1.086.646-2.18,1.279-3.5,2.053,2.005.924,3.919.8,5.71.906,14.416.888,28.483-.637,41.961-6.046,2.145-.861,4.449-1.934,7.051-3.246C78.786,51.038,73.823,58.5,65.992,62.533Z" transform="translate(0 0)" fill="#508d8b"/>
    </g>
  </g>
</svg>
