<?xml version="1.0" encoding="utf-8"?>
<!-- Generator: Adobe Illustrator 27.0.0, SVG Export Plug-In . SVG Version: 6.00 Build 0)  -->
<svg version="1.1" id="Capa_1" xmlns="http://www.w3.org/2000/svg" xmlns:xlink="http://www.w3.org/1999/xlink" x="0px" y="0px"
	 viewBox="0 0 862.3 189.1" style="enable-background:new 0 0 862.3 189.1;" xml:space="preserve">
<style type="text/css">
	.st0{clip-path:url(#SVGID_00000010272367021683803940000008011889872394255036_);}
	.st1{fill:#606060;}
	.st2{clip-path:url(#SVGID_00000026882542481295044100000016817446795205617283_);}
	.st3{fill:#31A3A3;}
	.st4{fill:#23ABBB;}
	.st5{fill:#15B2D2;}
	.st6{fill:#07BAEA;}
	.st7{fill:#46987F;}
	.st8{fill:#1CAFC6;}
	.st9{clip-path:url(#SVGID_00000131368300140359476730000015869982361637773443_);}
	.st10{fill:url(#Rectángulo_4_00000106844883955648235750000006287821110132037270_);}
	.st11{clip-path:url(#SVGID_00000086674580215160979860000007999332433381959062_);}
	.st12{fill:url(#Rectángulo_5_00000099654125317725746390000007936620468905641889_);}
	.st13{clip-path:url(#SVGID_00000073723138772481544830000013780715357177189265_);}
	.st14{fill:url(#Trazado_32_00000070097517228703965140000001924892145927117963_);}
</style>
<g id="Grupo_1" transform="translate(0 0)">
	<g id="Grupo_2" transform="translate(0 0)">
		<g>
			<defs>
				<rect id="SVGID_1_" y="0" width="862.3" height="189.1"/>
			</defs>
			<clipPath id="SVGID_00000094613030243492990040000007946643584069976742_">
				<use xlink:href="#SVGID_1_"  style="overflow:visible;"/>
			</clipPath>
			<g id="Grupo_1-2" style="clip-path:url(#SVGID_00000094613030243492990040000007946643584069976742_);">
				<path id="Trazado_34" class="st1" d="M221.9,56.1h26.7c7.6-0.1,15.2,1.6,21.9,5.2c6.2,3.3,11.4,8.4,14.8,14.6
					c3.6,6.6,5.4,14,5.3,21.5c0.1,7.5-1.7,14.9-5.3,21.5c-3.4,6.2-8.6,11.2-14.8,14.6c-6.8,3.6-14.3,5.3-21.9,5.2h-26.7V56.1z
					 M248.4,132.6c6.5,0.1,13-1.4,18.8-4.4c5.3-2.8,9.7-7.1,12.6-12.4c3.1-5.6,4.6-11.9,4.5-18.3c0.1-6.4-1.4-12.7-4.5-18.3
					c-2.9-5.3-7.3-9.6-12.6-12.4c-5.8-3-12.2-4.6-18.8-4.4h-20.1v70.3H248.4z M336.6,139.5c-5.7,0.1-11.3-1.3-16.2-4.1
					c-4.7-2.7-8.6-6.7-11.2-11.5c-2.8-5.1-4.2-10.8-4.1-16.6c-0.1-5.7,1.3-11.4,4.1-16.5c2.6-4.8,6.5-8.7,11.3-11.4
					c4.9-2.8,10.5-4.2,16.2-4.1c5.8-0.1,11.5,1.4,16.6,4.3c4.8,2.8,8.7,7,11.2,12c2.7,5.4,3.9,11.5,3.7,17.5h-56.8
					c0.1,4.5,1.4,8.9,3.7,12.7c2.2,3.6,5.3,6.6,9,8.7c3.9,2.1,8.2,3.2,12.6,3.1c4.8,0.1,9.5-1.1,13.7-3.4c4-2.2,7.1-5.6,9.1-9.7h6.5
					c-2.1,5.7-6.1,10.6-11.3,13.9C349.2,137.9,343,139.6,336.6,139.5z M361.9,103.9c-0.6-6.3-3.5-12.1-8.1-16.4
					c-4.7-4.3-10.8-6.5-17.1-6.4c-6.8,0-12.6,2.1-17.2,6.3c-4.6,4.3-7.5,10.2-8,16.5L361.9,103.9z M386.5,76.2h6v12.4
					c1.8-4,4.8-7.4,8.4-9.8c3.7-2.3,7.9-3.5,12.2-3.4c2.9,0.1,5.8,0.5,8.6,1.3v5.7c-2.6-0.8-5.3-1.2-8-1.3c-3.9-0.1-7.7,1-11,3
					c-3.2,2-5.9,4.9-7.6,8.3c-1.9,3.8-2.8,7.9-2.7,12.2v34.2h-6V76.2z M437.6,76.2h6v11.9c2.1-3.9,5.2-7.2,9.1-9.4
					c3.9-2.2,8.4-3.4,12.9-3.3c4.9-0.1,9.8,1.3,13.9,4c3.9,2.8,6.8,6.8,8.3,11.4c2.1-4.6,5.5-8.6,9.7-11.3c4.3-2.8,9.3-4.2,14.5-4.1
					c7.6,0,13.6,2.6,17.9,7.7c4.3,5.1,6.5,12.2,6.5,21.1v34.6h-6v-34.5c0-7.4-1.7-13.1-5-17.2c-3.3-4.1-7.9-6.1-13.9-6.1
					c-6.5,0-11.6,2.1-15.6,6.4c-3.9,4.3-5.9,9.9-5.9,16.8v34.5h-6v-34.5c0-7.4-1.7-13.1-5-17.2c-3.3-4.1-8-6.1-14-6.1
					c-6.4,0-11.5,2.1-15.5,6.4c-3.9,4.3-5.9,9.9-5.9,16.8v34.5h-6V76.2z M585.5,139.5c-5.6,0.1-11.2-1.4-16.1-4.2
					c-4.7-2.7-8.6-6.7-11.2-11.5c-2.8-5-4.2-10.7-4.1-16.4c-0.1-5.7,1.3-11.4,4.1-16.4c2.6-4.8,6.5-8.8,11.2-11.5
					c4.9-2.8,10.5-4.3,16.1-4.2c5.3-0.1,10.5,1.2,15.2,3.7c4.5,2.4,8.3,5.9,11,10.2V76.2h6v62.5h-6v-13.1c-2.7,4.3-6.5,7.8-11,10.2
					C596,138.3,590.8,139.6,585.5,139.5z M560.2,107.4c-0.1,4.7,1.1,9.4,3.4,13.5c2.2,3.9,5.4,7.2,9.3,9.4c4,2.3,8.6,3.5,13.2,3.4
					c4.6,0.1,9.2-1.1,13.2-3.4c3.9-2.2,7-5.5,9.2-9.4c2.3-4.1,3.4-8.8,3.4-13.5c0.1-4.7-1.1-9.4-3.4-13.5c-2.2-3.9-5.3-7.1-9.2-9.4
					c-4-2.3-8.5-3.5-13.2-3.4c-4.6-0.1-9.2,1.1-13.2,3.4c-3.9,2.2-7.1,5.5-9.3,9.4C561.3,98,560.2,102.7,560.2,107.4L560.2,107.4z
					 M641.8,56.1h6v82.6h-6V56.1z M696.8,139.5c-8.1,0-14.5-2.6-19.2-7.7c-4.7-5.2-7-12.2-7-21.1V76.2h6v34.5
					c0,7.4,1.8,13.1,5.5,17.2c3.7,4.1,8.8,6.1,15.5,6.1c4.2,0.1,8.4-0.9,12.2-2.9c3.5-1.9,6.3-4.7,8.3-8.1c2-3.7,3-7.9,3-12.1V76.2
					h6v62.5h-6v-13.1c-2.1,4.3-5.5,7.9-9.6,10.2C706.9,138.3,701.9,139.6,696.8,139.5z M749.7,76.2h6v11.9c2.1-3.9,5.2-7.2,9.1-9.4
					c3.9-2.2,8.4-3.4,12.9-3.3c4.9-0.1,9.8,1.3,13.9,4c3.9,2.8,6.8,6.8,8.3,11.4c2.1-4.6,5.5-8.6,9.7-11.3c4.3-2.8,9.3-4.2,14.5-4.1
					c7.6,0,13.6,2.6,17.9,7.7c4.3,5.1,6.5,12.2,6.5,21.1v34.6h-6v-34.5c0-7.4-1.7-13.1-5-17.2s-7.9-6.1-13.9-6.1
					c-6.5,0-11.6,2.1-15.6,6.4c-3.9,4.3-5.9,9.9-5.9,16.8v34.5h-6v-34.5c0-7.4-1.7-13.1-5-17.2s-8-6.1-14-6.1
					c-6.4,0-11.5,2.1-15.5,6.4c-3.9,4.3-5.9,9.9-5.9,16.8v34.5h-6L749.7,76.2z"/>
			</g>
		</g>
	</g>
	<g id="Grupo_4" transform="translate(0 0)">
		<g>
			<defs>
				<rect id="SVGID_00000026151661932127933390000009179677336131125936_" y="0" width="862.3" height="189.1"/>
			</defs>
			<clipPath id="SVGID_00000075870858049446885150000009537852511308502182_">
				<use xlink:href="#SVGID_00000026151661932127933390000009179677336131125936_"  style="overflow:visible;"/>
			</clipPath>
			<g id="Grupo_3" style="clip-path:url(#SVGID_00000075870858049446885150000009537852511308502182_);">
				<path id="Trazado_1" class="st3" d="M129.6,136.5c0,3.5-2.8,6.3-6.3,6.3c-3.5,0-6.3-2.8-6.3-6.3s2.8-6.3,6.3-6.3
					S129.6,133,129.6,136.5C129.6,136.5,129.6,136.5,129.6,136.5"/>
				<path id="Trazado_2" class="st4" d="M112.1,120.2c2.3,0.6,3.7,3,3.1,5.3c-0.6,2.3-3,3.7-5.3,3.1c-2.3-0.6-3.7-3-3.1-5.3
					C107.4,121,109.8,119.6,112.1,120.2C112.1,120.2,112.1,120.2,112.1,120.2"/>
				<path id="Trazado_3" class="st5" d="M101,110.2c1.2,1.2,1.1,3.2-0.2,4.3c-1.2,1.2-3.2,1.1-4.3-0.2c-1.2-1.2-1.1-3.2,0.2-4.3
					C97.9,108.9,99.8,109,101,110.2C101,110.2,101,110.2,101,110.2"/>
				<path id="Trazado_4" class="st6" d="M89.9,100.2c0,1.9-1.5,3.4-3.4,3.4c-1.9,0-3.4-1.5-3.4-3.4c0-1.9,1.5-3.4,3.4-3.4
					c0,0,0,0,0,0C88.3,96.9,89.9,98.4,89.9,100.2L89.9,100.2"/>
				<path id="Trazado_5" class="st5" d="M79.9,112.3c0,2.4-1.9,4.3-4.3,4.3s-4.3-1.9-4.3-4.3c0-2.4,1.9-4.3,4.3-4.3
					C77.9,108,79.9,109.9,79.9,112.3"/>
				<path id="Trazado_6" class="st4" d="M69.9,124.4c0,2.9-2.4,5.3-5.3,5.3c-2.9,0-5.3-2.4-5.3-5.3s2.4-5.3,5.3-5.3
					C67.5,119.1,69.9,121.5,69.9,124.4"/>
				<path id="Trazado_7" class="st3" d="M59.9,136.5c0,3.5-2.8,6.3-6.3,6.3c-3.5,0-6.3-2.8-6.3-6.3s2.8-6.3,6.3-6.3
					C57.1,130.2,59.9,133,59.9,136.5L59.9,136.5"/>
				<path id="Trazado_8" class="st3" d="M8.9,109.1c-4.9,0-8.9-4-8.9-8.9c0-4.9,4-8.9,8.9-8.9s8.9,4,8.9,8.9l0,0
					C17.8,105.2,13.8,109.1,8.9,109.1C8.9,109.1,8.9,109.1,8.9,109.1"/>
				<path id="Trazado_9" class="st4" d="M34.8,107.3c-3.9,0-7.1-3.2-7.1-7.1s3.2-7.1,7.1-7.1s7.1,3.2,7.1,7.1S38.6,107.3,34.8,107.3
					C34.8,107.3,34.8,107.3,34.8,107.3"/>
				<path id="Trazado_10" class="st5" d="M60.6,105.5c-2.9,0-5.2-2.3-5.2-5.2s2.3-5.2,5.2-5.2c2.9,0,5.2,2.3,5.2,5.2c0,0,0,0,0,0
					C65.8,103.1,63.5,105.5,60.6,105.5"/>
				<path id="Trazado_11" class="st6" d="M89.9,100.2c0,1.9-1.5,3.4-3.4,3.4c-1.9,0-3.4-1.5-3.4-3.4c0-1.9,1.5-3.4,3.4-3.4
					c0,0,0,0,0,0C88.3,96.9,89.9,98.4,89.9,100.2L89.9,100.2"/>
				<path id="Trazado_12" class="st5" d="M117.9,100.2c0,2.9-2.3,5.2-5.2,5.2c-2.9,0-5.2-2.3-5.2-5.2c0-2.9,2.3-5.2,5.2-5.2
					C115.5,95,117.9,97.4,117.9,100.2"/>
				<path id="Trazado_13" class="st4" d="M145.9,100.2c0,3.9-3.2,7.1-7.1,7.1s-7.1-3.2-7.1-7.1s3.2-7.1,7.1-7.1
					S145.9,96.3,145.9,100.2L145.9,100.2"/>
				<path id="Trazado_14" class="st3" d="M173.9,100.2c0,4.9-4,8.9-8.9,8.9c-4.9,0-8.9-4-8.9-8.9s4-8.9,8.9-8.9l0,0
					C169.9,91.3,173.9,95.3,173.9,100.2C173.9,100.2,173.9,100.2,173.9,100.2"/>
				<path id="Trazado_15" class="st7" d="M95.9,8.9c0,4.9-4,8.9-8.9,8.9s-8.9-4-8.9-8.9S82.1,0,87,0c0,0,0,0,0,0
					C91.9,0,95.9,4,95.9,8.9C95.9,8.9,95.9,8.9,95.9,8.9"/>
				<path id="Trazado_16" class="st3" d="M93.9,39.3c0,3.9-3.2,7.1-7.1,7.1c-3.9,0-7.1-3.2-7.1-7.1s3.2-7.1,7.1-7.1
					S93.9,35.4,93.9,39.3L93.9,39.3"/>
				<path id="Trazado_17" class="st8" d="M91.9,69.8c0,2.9-2.3,5.2-5.2,5.2s-5.2-2.3-5.2-5.2c0-2.9,2.3-5.2,5.2-5.2
					C89.5,64.6,91.9,66.9,91.9,69.8"/>
				<path id="Trazado_18" class="st6" d="M89.9,100.2c0,1.9-1.5,3.4-3.4,3.4c-1.9,0-3.4-1.5-3.4-3.4c0-1.9,1.5-3.4,3.4-3.4
					c0,0,0,0,0,0C88.3,96.9,89.9,98.4,89.9,100.2L89.9,100.2"/>
				<path id="Trazado_19" class="st7" d="M95.9,180.2c0,4.9-4,8.9-8.9,8.9c-4.9,0-8.9-4-8.9-8.9c0-4.9,4-8.9,8.9-8.9c0,0,0,0,0,0
					C91.9,171.3,95.9,175.3,95.9,180.2C95.9,180.2,95.9,180.2,95.9,180.2"/>
				<path id="Trazado_20" class="st3" d="M93.9,153.5c0,3.9-3.2,7.1-7.1,7.1s-7.1-3.2-7.1-7.1c0-3.9,3.2-7.1,7.1-7.1
					S93.9,149.6,93.9,153.5L93.9,153.5"/>
				<path id="Trazado_21" class="st8" d="M91.9,126.9c0,2.9-2.3,5.2-5.2,5.2c-2.9,0-5.2-2.3-5.2-5.2c0-2.9,2.3-5.2,5.2-5.2
					C89.5,121.7,91.9,124,91.9,126.9"/>
				<path id="Trazado_22" class="st6" d="M89.9,100.2c0,1.9-1.5,3.4-3.4,3.4c-1.9,0-3.4-1.5-3.4-3.4c0-1.9,1.5-3.4,3.4-3.4
					c0,0,0,0,0,0C88.3,96.9,89.9,98.4,89.9,100.2L89.9,100.2"/>
				<path id="Trazado_23" class="st5" d="M78.9,88.2c0,2.4-1.9,4.3-4.3,4.3c-2.4,0-4.4-1.9-4.4-4.3c0-2.4,1.9-4.3,4.3-4.3
					C77,83.8,78.9,85.8,78.9,88.2"/>
				<path id="Trazado_24" class="st4" d="M68,76.1c0,2.9-2.4,5.3-5.3,5.3s-5.3-2.4-5.3-5.3c0-2.9,2.4-5.3,5.3-5.3
					C65.6,70.8,68,73.1,68,76.1"/>
				<path id="Trazado_25" class="st3" d="M57.1,64c0,3.5-2.8,6.3-6.3,6.3c-3.5,0-6.3-2.8-6.3-6.3c0-3.5,2.8-6.3,6.3-6.3
					C54.2,57.7,57.1,60.5,57.1,64C57.1,64,57.1,64,57.1,64"/>
				<path id="Trazado_26" class="st3" d="M130.3,62.5c0,3.5-2.8,6.3-6.3,6.3c-3.5,0-6.3-2.8-6.3-6.3s2.8-6.3,6.3-6.3
					C127.5,56.2,130.3,59,130.3,62.5C130.3,62.5,130.3,62.5,130.3,62.5"/>
				<path id="Trazado_27" class="st4" d="M106.2,75.1c0-2.9,2.4-5.3,5.3-5.3s5.3,2.4,5.3,5.3c0,2.9-2.4,5.3-5.3,5.3
					C108.6,80.4,106.2,78,106.2,75.1"/>
				<path id="Trazado_28" class="st5" d="M94.7,87.7c0-2.4,1.9-4.3,4.4-4.3c2.4,0,4.3,1.9,4.3,4.3c0,2.4-1.9,4.3-4.3,4.3
					C96.6,92,94.7,90.1,94.7,87.7"/>
				<path id="Trazado_29" class="st6" d="M89.9,100.2c0,1.9-1.5,3.4-3.4,3.4c-1.9,0-3.4-1.5-3.4-3.4c0-1.9,1.5-3.4,3.4-3.4
					c0,0,0,0,0,0C88.3,96.9,89.9,98.4,89.9,100.2L89.9,100.2"/>
			</g>
		</g>
	</g>
	<g id="Grupo_6" transform="translate(52.973 124.05)">
		<g>
			<defs>
				<path id="SVGID_00000099621699813903888580000007565973403650420887_" d="M7,12.1c0-0.5-0.1-1-0.3-1.5C6.7,11.1,6.8,11.6,7,12.1
					 M0,6.2L0,6.2L0,6.2L0,6.2 M0,6.2L0,6.2l0.2,0c0.2,0,0.6,0,1.1,0c-0.3,0-0.5,0-0.8,0C0.3,6.2,0.1,6.2,0,6.2 M5.4,5
					c-1.2,0.8-2.6,1.2-4,1.2c2.5,0.3,4.5,2,5.3,4.3c-0.2-1.7-0.1-3.2,0.8-4c1-0.6,2.2-0.9,3.3-0.8c0.4,0,0.7,0,0.7-0.1
					c0-0.2-2.1-0.1-3.6-1.5C7.2,3.4,6.7,2.5,6.5,1.5C6.6,2.8,6.2,4.1,5.4,5 M6.5,1.5c0-0.5-0.1-1-0.1-1.5C6.3,0.5,6.3,1,6.5,1.5"/>
			</defs>
			<clipPath id="SVGID_00000170240218363666212500000002710821651361186225_">
				<use xlink:href="#SVGID_00000099621699813903888580000007565973403650420887_"  style="overflow:visible;"/>
			</clipPath>
			<g id="Grupo_5" style="clip-path:url(#SVGID_00000170240218363666212500000002710821651361186225_);">
				
					<linearGradient id="Rectángulo_4_00000145027519280699850320000004336542508527384194_" gradientUnits="userSpaceOnUse" x1="57.5558" y1="383.161" x2="57.6738" y2="383.161" gradientTransform="matrix(11.7988 -11.7988 -11.7988 -11.7988 3805.9753 5247.4907)">
					<stop  offset="0" style="stop-color:#31A3A3"/>
					<stop  offset="1" style="stop-color:#23ABBB"/>
				</linearGradient>
				<polygon id="Rectángulo_4" style="fill:url(#Rectángulo_4_00000145027519280699850320000004336542508527384194_);" points="
					-6,6 5.8,-5.8 17.6,6 5.8,17.8 				"/>
			</g>
		</g>
	</g>
	<g id="Grupo_8" transform="translate(115.011 95.095)">
		<g>
			<defs>
				<path id="SVGID_00000016071428904833258400000010570096505014033846_" d="M19.9,11c-0.2-0.1-0.4-0.3-0.7-0.5
					C19.4,10.7,19.7,10.9,19.9,11 M0,9.7c0,0,0.1,0,0.2-0.1C0.1,9.7,0.1,9.7,0,9.7 M0.7,0.9C0.5,0.8,0.3,0.6,0.2,0.5
					C0.3,0.6,0.5,0.8,0.7,0.9 M9.6,3.7c-3.2,0-6.3-0.9-8.8-2.8c1.3,1,2,2.6,2,4.2C2.6,7,1.7,8.6,0.2,9.6c5.9-3.7,13.5-3.4,19,0.9
					c-1.4-1.2-2.3-2.9-2.4-4.7C16.6,3.6,17.4,1.5,19,0C16.4,2.3,13,3.6,9.6,3.7"/>
			</defs>
			<clipPath id="SVGID_00000136409785749924136750000006092027390937801090_">
				<use xlink:href="#SVGID_00000016071428904833258400000010570096505014033846_"  style="overflow:visible;"/>
			</clipPath>
			<g id="Grupo_7" style="clip-path:url(#SVGID_00000136409785749924136750000006092027390937801090_);">
				
					<linearGradient id="Rectángulo_5_00000109008801837650706690000018289326179210302082_" gradientUnits="userSpaceOnUse" x1="5.5269" y1="390.7122" x2="5.6259" y2="390.7122" gradientTransform="matrix(19.901 0 0 -11.02 -224.999 4311.1582)">
					<stop  offset="0" style="stop-color:#15B2D2"/>
					<stop  offset="1" style="stop-color:#23ABBB"/>
				</linearGradient>
				
					<rect id="Rectángulo_5" x="0" y="0" style="fill:url(#Rectángulo_5_00000109008801837650706690000018289326179210302082_);" width="19.9" height="11"/>
			</g>
		</g>
	</g>
	<g id="Grupo_10" transform="translate(79.759 14.006)">
		<g>
			<defs>
				<path id="SVGID_00000132059478826051437260000013133229043177951369_" d="M1,21.7c0.3-0.3,0.7-0.7,1-1C1.6,20.9,1.2,21.3,1,21.7
					 M13.5,21.9c-0.4-0.5-0.9-1-1.4-1.5C12.5,20.9,13,21.4,13.5,21.9 M7.5,3.8c-2,0-4-0.6-5.6-1.9c2.2,2.5,3.4,5.8,3.5,9.1
					c0,3.5-1.2,6.9-3.5,9.6c1.4-1.3,3.3-2,5.2-2.1c1.8,0,3.6,0.7,5,1.9c-2.1-2.6-3.3-5.8-3.2-9.1c0.1-3.7,1.7-7.2,4.4-9.8
					C11.6,2.9,9.6,3.7,7.5,3.8 M13.2,1.5c0.1-0.1,0.2-0.2,0.2-0.2C13.4,1.3,13.3,1.4,13.2,1.5 M2,1.9C1.4,1.2,0.7,0.6,0,0
					C0.6,0.7,1.2,1.4,2,1.9"/>
			</defs>
			<clipPath id="SVGID_00000175291686193332113830000004376941929524932271_">
				<use xlink:href="#SVGID_00000132059478826051437260000013133229043177951369_"  style="overflow:visible;"/>
			</clipPath>
			<g id="Grupo_9" style="clip-path:url(#SVGID_00000175291686193332113830000004376941929524932271_);">
				
					<linearGradient id="Trazado_32_00000127037475783311709070000014589927244220101055_" gradientUnits="userSpaceOnUse" x1="37.4257" y1="488.8752" x2="37.5727" y2="488.8752" gradientTransform="matrix(13.453 0 0 -26.062 -583.2511 12752.0059)">
					<stop  offset="0" style="stop-color:#31A3A3"/>
					<stop  offset="1" style="stop-color:#46987F"/>
				</linearGradient>
				<path id="Trazado_32" style="fill:url(#Trazado_32_00000127037475783311709070000014589927244220101055_);" d="M0,21.9v-24
					L13.5,0v24L0,21.9z"/>
			</g>
		</g>
	</g>
</g>
<g>
	<g>
		<path class="st1" d="M587.5,169.4c-0.2,0-0.4-0.1-0.5-0.2c-0.1-0.1-0.2-0.3-0.2-0.5v-17.3c0-0.2,0.1-0.4,0.2-0.5
			c0.1-0.1,0.3-0.2,0.5-0.2s0.4,0.1,0.5,0.2s0.2,0.3,0.2,0.5v17.3c0,0.2-0.1,0.4-0.2,0.5S587.7,169.4,587.5,169.4z"/>
		<path class="st1" d="M593.5,169.4c-0.2,0-0.4-0.1-0.5-0.2c-0.1-0.1-0.2-0.3-0.2-0.5V157c0-0.2,0.1-0.4,0.2-0.5
			c0.1-0.1,0.3-0.2,0.5-0.2c0.2,0,0.4,0.1,0.5,0.2c0.1,0.1,0.2,0.3,0.2,0.5v11.7c0,0.2-0.1,0.4-0.2,0.5S593.8,169.4,593.5,169.4z
			 M604.2,169.4c-0.2,0-0.4-0.1-0.5-0.2c-0.1-0.1-0.2-0.3-0.2-0.5v-6.5c0-1.1-0.2-1.9-0.6-2.6c-0.4-0.7-1-1.2-1.7-1.5
			c-0.7-0.3-1.5-0.5-2.4-0.5c-0.9,0-1.6,0.2-2.3,0.5c-0.7,0.3-1.2,0.8-1.6,1.4s-0.6,1.2-0.6,1.9H593c0.1-1,0.4-1.9,0.9-2.7
			c0.5-0.8,1.2-1.4,2.1-1.9c0.8-0.5,1.8-0.7,2.8-0.7c1.2,0,2.2,0.2,3.1,0.7c0.9,0.5,1.6,1.2,2.2,2.1c0.5,0.9,0.8,2,0.8,3.4v6.5
			c0,0.2-0.1,0.4-0.2,0.5C604.5,169.4,604.4,169.4,604.2,169.4z"/>
		<path class="st1" d="M615,169.6c-1.3,0-2.4-0.3-3.4-0.9c-1-0.6-1.8-1.4-2.4-2.4c-0.6-1-0.9-2.2-0.9-3.4c0-1.3,0.3-2.4,0.9-3.4
			c0.6-1,1.4-1.8,2.4-2.4c1-0.6,2.2-0.9,3.4-0.9s2.4,0.3,3.4,0.9c1,0.6,1.8,1.4,2.4,2.4c0.6,1,0.9,2.2,0.9,3.4
			c0,1.3-0.3,2.4-0.9,3.4c-0.6,1-1.4,1.8-2.4,2.4C617.4,169.3,616.3,169.6,615,169.6z M615,168.2c1,0,1.9-0.2,2.7-0.7
			s1.4-1.1,1.9-1.9c0.5-0.8,0.7-1.7,0.7-2.8c0-1-0.2-1.9-0.7-2.7c-0.5-0.8-1.1-1.4-1.9-1.9c-0.8-0.5-1.7-0.7-2.7-0.7
			c-1,0-1.9,0.2-2.7,0.7c-0.8,0.5-1.4,1.1-1.9,1.9c-0.5,0.8-0.7,1.7-0.7,2.8c0,1,0.2,1.9,0.7,2.7c0.5,0.8,1.1,1.4,1.9,1.9
			C613.1,168,614,168.2,615,168.2z"/>
		<path class="st1" d="M629.8,169.5c-0.3,0-0.5-0.2-0.7-0.5l-5.5-11.7c-0.1-0.2-0.1-0.3,0-0.5c0.1-0.2,0.2-0.3,0.4-0.4
			c0.2-0.1,0.3-0.1,0.5,0c0.2,0.1,0.3,0.2,0.4,0.4l5.4,11.6h-0.9l5.3-11.6c0.1-0.2,0.2-0.3,0.4-0.4c0.2-0.1,0.4-0.1,0.5,0
			c0.2,0.1,0.3,0.2,0.4,0.4c0.1,0.2,0.1,0.3,0,0.5l-5.4,11.7C630.4,169.3,630.1,169.5,629.8,169.5z"/>
		<path class="st1" d="M644.7,169.6c-1.3,0-2.4-0.3-3.4-0.9c-1-0.6-1.8-1.4-2.4-2.4c-0.6-1-0.9-2.2-0.9-3.4c0-1.3,0.3-2.4,0.9-3.4
			c0.6-1,1.4-1.8,2.4-2.4c1-0.6,2.2-0.9,3.4-0.9s2.4,0.3,3.4,0.9c1,0.6,1.8,1.4,2.4,2.4c0.6,1,0.9,2.2,0.9,3.4l-0.6,1
			c0,1.1-0.3,2.1-0.8,2.9s-1.3,1.5-2.2,2.1C646.9,169.3,645.8,169.6,644.7,169.6z M644.7,168.2c1,0,1.9-0.2,2.7-0.7s1.4-1.1,1.9-1.9
			c0.5-0.8,0.7-1.7,0.7-2.7c0-1-0.2-1.9-0.7-2.8c-0.5-0.8-1.1-1.4-1.9-1.9c-0.8-0.5-1.7-0.7-2.7-0.7c-1,0-1.9,0.2-2.7,0.7
			c-0.8,0.5-1.4,1.1-1.9,1.9c-0.5,0.8-0.7,1.7-0.7,2.8c0,1,0.2,1.9,0.7,2.7c0.5,0.8,1.1,1.4,1.9,1.9
			C642.8,168,643.7,168.2,644.7,168.2z M650.6,169.4c-0.2,0-0.4-0.1-0.5-0.2c-0.1-0.1-0.2-0.3-0.2-0.5v-4.4l0.5-1.4h1v5.8
			c0,0.2-0.1,0.4-0.2,0.5S650.9,169.4,650.6,169.4z"/>
		<path class="st1" d="M660.8,169.6c-1.2,0-2.4-0.3-3.4-0.9c-1-0.6-1.8-1.4-2.3-2.4s-0.9-2.1-0.9-3.4c0-1.3,0.3-2.4,0.8-3.4
			s1.3-1.8,2.2-2.4c0.9-0.6,2-0.9,3.2-0.9c1,0,2,0.2,2.8,0.6c0.8,0.4,1.6,1,2.2,1.8c0.1,0.2,0.2,0.3,0.1,0.5c0,0.2-0.1,0.3-0.3,0.4
			c-0.1,0.1-0.3,0.2-0.5,0.1c-0.2,0-0.3-0.1-0.5-0.3c-1-1.2-2.3-1.8-3.9-1.8c-0.9,0-1.8,0.2-2.5,0.7c-0.7,0.5-1.3,1.1-1.7,1.9
			c-0.4,0.8-0.6,1.7-0.6,2.8c0,1,0.2,1.9,0.6,2.7c0.4,0.8,1,1.4,1.8,1.9c0.8,0.5,1.6,0.7,2.7,0.7c0.7,0,1.3-0.1,1.9-0.3
			c0.6-0.2,1.1-0.5,1.5-0.9c0.1-0.1,0.3-0.2,0.5-0.2s0.3,0,0.5,0.2c0.2,0.1,0.2,0.3,0.3,0.5c0,0.2-0.1,0.3-0.2,0.5
			C664,169,662.5,169.6,660.8,169.6z M660.1,175c-0.8,0-1.4-0.2-1.9-0.5s-0.7-0.7-0.7-1.1c0-0.2,0.1-0.4,0.2-0.5
			c0.1-0.1,0.3-0.2,0.5-0.2c0.2,0,0.3,0,0.4,0.1c0.1,0.1,0.3,0.2,0.4,0.3c0.1,0.1,0.3,0.2,0.4,0.3c0.2,0.1,0.4,0.1,0.7,0.1
			c0.4,0,0.7-0.1,1-0.3c0.3-0.2,0.4-0.4,0.4-0.7c0-0.3-0.1-0.6-0.3-0.7c-0.2-0.2-0.6-0.3-1.1-0.5c-0.3-0.1-0.5-0.2-0.7-0.3
			c-0.1-0.1-0.1-0.4,0-0.8l0.5-1.2c0.1-0.2,0.2-0.3,0.3-0.4s0.3-0.1,0.5-0.1c0.2,0,0.4,0.1,0.5,0.3c0.1,0.2,0.1,0.4,0,0.6l-0.4,0.9
			c0.8,0.3,1.4,0.6,1.7,0.9c0.3,0.4,0.4,0.8,0.4,1.3c0,0.5-0.1,0.9-0.4,1.3c-0.3,0.4-0.7,0.7-1.1,0.9
			C661.1,174.9,660.6,175,660.1,175z"/>
		<path class="st1" d="M675.2,169.6c-1.3,0-2.4-0.3-3.4-0.9c-1-0.6-1.8-1.4-2.4-2.4c-0.6-1-0.9-2.2-0.9-3.4c0-1.3,0.3-2.4,0.9-3.4
			c0.6-1,1.4-1.8,2.4-2.4c1-0.6,2.2-0.9,3.4-0.9s2.4,0.3,3.4,0.9c1,0.6,1.8,1.4,2.4,2.4c0.6,1,0.9,2.2,0.9,3.4l-0.6,1
			c0,1.1-0.3,2.1-0.8,2.9s-1.3,1.5-2.2,2.1C677.4,169.3,676.4,169.6,675.2,169.6z M675.2,168.2c1,0,1.9-0.2,2.7-0.7s1.4-1.1,1.9-1.9
			c0.5-0.8,0.7-1.7,0.7-2.7c0-1-0.2-1.9-0.7-2.8c-0.5-0.8-1.1-1.4-1.9-1.9c-0.8-0.5-1.7-0.7-2.7-0.7c-1,0-1.9,0.2-2.7,0.7
			c-0.8,0.5-1.4,1.1-1.9,1.9c-0.5,0.8-0.7,1.7-0.7,2.8c0,1,0.2,1.9,0.7,2.7c0.5,0.8,1.1,1.4,1.9,1.9
			C673.3,168,674.2,168.2,675.2,168.2z M677.7,154.3c-0.5,0-0.9-0.1-1.3-0.3c-0.4-0.2-0.7-0.4-1-0.6c-0.3-0.2-0.6-0.4-0.8-0.4
			c-0.2-0.1-0.4-0.1-0.6-0.1c-0.3,0-0.6,0.1-1,0.3s-0.6,0.4-0.9,0.7c-0.1,0.2-0.3,0.3-0.5,0.3c-0.2,0-0.4,0-0.5-0.1
			c-0.2-0.1-0.3-0.3-0.3-0.4c0-0.2,0-0.4,0.1-0.5c0.4-0.5,0.9-0.9,1.4-1.2s1.1-0.4,1.6-0.4c0.5,0,0.9,0.1,1.2,0.3
			c0.4,0.2,0.7,0.4,0.9,0.5c0.3,0.2,0.5,0.3,0.7,0.4s0.5,0.2,0.8,0.2c0.3,0,0.5,0,0.8-0.1c0.2-0.1,0.4-0.2,0.6-0.4
			c0.1-0.1,0.3-0.2,0.5-0.3c0.2-0.1,0.3,0,0.5,0c0.2,0.1,0.4,0.3,0.4,0.4c0,0.2,0,0.4-0.1,0.5C679.7,153.9,678.8,154.3,677.7,154.3z
			 M681.2,169.4c-0.2,0-0.4-0.1-0.5-0.2c-0.1-0.1-0.2-0.3-0.2-0.5v-4.4l0.5-1.4h1v5.8c0,0.2-0.1,0.4-0.2,0.5
			S681.4,169.4,681.2,169.4z"/>
		<path class="st1" d="M691.5,169.6c-1.3,0-2.4-0.3-3.4-0.9c-1-0.6-1.8-1.4-2.4-2.4c-0.6-1-0.9-2.2-0.9-3.4c0-1.3,0.3-2.4,0.9-3.4
			c0.6-1,1.4-1.8,2.4-2.4c1-0.6,2.2-0.9,3.4-0.9s2.4,0.3,3.4,0.9c1,0.6,1.8,1.4,2.4,2.4c0.6,1,0.9,2.2,0.9,3.4
			c0,1.3-0.3,2.4-0.9,3.4c-0.6,1-1.4,1.8-2.4,2.4C693.9,169.3,692.8,169.6,691.5,169.6z M691.5,168.2c1,0,1.9-0.2,2.7-0.7
			s1.4-1.1,1.9-1.9c0.5-0.8,0.7-1.7,0.7-2.8c0-1-0.2-1.9-0.7-2.7c-0.5-0.8-1.1-1.4-1.9-1.9c-0.8-0.5-1.7-0.7-2.7-0.7
			c-1,0-1.9,0.2-2.7,0.7c-0.8,0.5-1.4,1.1-1.9,1.9c-0.5,0.8-0.7,1.7-0.7,2.8c0,1,0.2,1.9,0.7,2.7c0.5,0.8,1.1,1.4,1.9,1.9
			C689.6,168,690.5,168.2,691.5,168.2z"/>
		<path class="st1" d="M714.7,169.6c-1.3,0-2.4-0.3-3.4-0.9c-1-0.6-1.8-1.4-2.3-2.4s-0.8-2.2-0.8-3.5c0-1.3,0.3-2.5,0.8-3.5
			s1.3-1.8,2.2-2.4s2-0.9,3.2-0.9c1.2,0,2.2,0.3,3.1,0.8c0.9,0.6,1.6,1.3,2.1,2.3s0.8,2.1,0.8,3.4c0,0.2-0.1,0.4-0.2,0.5
			c-0.1,0.1-0.3,0.2-0.5,0.2h-10.6v-1.2h11l-1.1,0.8c0-1-0.1-2-0.5-2.8c-0.4-0.8-0.9-1.4-1.6-1.9c-0.7-0.5-1.5-0.7-2.5-0.7
			c-0.9,0-1.7,0.2-2.4,0.7s-1.3,1.1-1.7,1.9c-0.4,0.8-0.6,1.7-0.6,2.8c0,1,0.2,2,0.6,2.8c0.4,0.8,1,1.4,1.8,1.9
			c0.8,0.5,1.6,0.7,2.6,0.7c0.6,0,1.3-0.1,1.9-0.3c0.6-0.2,1.1-0.5,1.5-0.9c0.1-0.1,0.3-0.2,0.5-0.2c0.2,0,0.3,0,0.5,0.2
			c0.2,0.1,0.3,0.3,0.3,0.5c0,0.2-0.1,0.3-0.2,0.5c-0.5,0.5-1.2,0.8-2,1.2C716.2,169.4,715.4,169.6,714.7,169.6z"/>
		<path class="st1" d="M724.2,169.4c-0.2,0-0.4-0.1-0.5-0.2c-0.1-0.1-0.2-0.3-0.2-0.5V157c0-0.2,0.1-0.4,0.2-0.5
			c0.1-0.1,0.3-0.2,0.5-0.2c0.2,0,0.4,0.1,0.5,0.2c0.1,0.1,0.2,0.3,0.2,0.5v11.7c0,0.2-0.1,0.4-0.2,0.5S724.4,169.4,724.2,169.4z
			 M732.9,169.4c-0.2,0-0.4-0.1-0.5-0.2c-0.1-0.1-0.2-0.3-0.2-0.5v-6.9c0-1.2-0.3-2.2-1-3c-0.6-0.8-1.5-1.2-2.5-1.2
			c-1.1,0-2,0.4-2.7,1.1c-0.7,0.7-1.1,1.6-1.1,2.7h-1.2c0-1,0.3-1.9,0.7-2.7c0.4-0.8,1-1.4,1.8-1.8s1.6-0.7,2.5-0.7
			c1,0,1.8,0.2,2.6,0.7c0.7,0.5,1.3,1.1,1.7,2c0.4,0.8,0.6,1.8,0.6,2.9v6.9c0,0.2-0.1,0.4-0.2,0.5S733.2,169.4,732.9,169.4z
			 M741.6,169.4c-0.2,0-0.4-0.1-0.5-0.2c-0.1-0.1-0.2-0.3-0.2-0.5v-6.9c0-1.2-0.3-2.2-1-3c-0.6-0.8-1.5-1.2-2.5-1.2
			c-1.1,0-2,0.4-2.7,1.1c-0.7,0.7-1,1.7-1,2.9h-1.4c0-1.1,0.3-2.1,0.7-2.9s1.1-1.5,1.8-1.9c0.8-0.5,1.6-0.7,2.6-0.7
			c1,0,1.8,0.2,2.6,0.7c0.7,0.5,1.3,1.1,1.7,2c0.4,0.8,0.6,1.8,0.6,2.9v6.9c0,0.2-0.1,0.4-0.2,0.5S741.8,169.4,741.6,169.4z"/>
		<path class="st1" d="M759.2,169.6c-1.3,0-2.4-0.3-3.4-0.9c-1-0.6-1.8-1.4-2.3-2.4s-0.8-2.2-0.8-3.5c0-1.3,0.3-2.5,0.8-3.5
			s1.3-1.8,2.2-2.4s2-0.9,3.2-0.9c1.2,0,2.2,0.3,3.1,0.8c0.9,0.6,1.6,1.3,2.1,2.3s0.8,2.1,0.8,3.4c0,0.2-0.1,0.4-0.2,0.5
			c-0.1,0.1-0.3,0.2-0.5,0.2h-10.6v-1.2h11l-1.1,0.8c0-1-0.1-2-0.5-2.8c-0.4-0.8-0.9-1.4-1.6-1.9c-0.7-0.5-1.5-0.7-2.5-0.7
			c-0.9,0-1.7,0.2-2.4,0.7s-1.3,1.1-1.7,1.9c-0.4,0.8-0.6,1.7-0.6,2.8c0,1,0.2,2,0.6,2.8c0.4,0.8,1,1.4,1.8,1.9
			c0.8,0.5,1.6,0.7,2.6,0.7c0.6,0,1.3-0.1,1.9-0.3c0.6-0.2,1.1-0.5,1.5-0.9c0.1-0.1,0.3-0.2,0.5-0.2c0.2,0,0.3,0,0.5,0.2
			c0.2,0.1,0.3,0.3,0.3,0.5c0,0.2-0.1,0.3-0.2,0.5c-0.5,0.5-1.2,0.8-2,1.2C760.8,169.4,760,169.6,759.2,169.6z"/>
		<path class="st1" d="M772.5,169.6c-0.8,0-1.7-0.2-2.6-0.5c-0.9-0.3-1.7-0.8-2.3-1.5c-0.1-0.2-0.2-0.3-0.2-0.5
			c0-0.2,0.1-0.3,0.3-0.5c0.2-0.1,0.3-0.2,0.5-0.1c0.2,0,0.3,0.1,0.4,0.3c0.5,0.5,1,0.9,1.7,1.1c0.7,0.2,1.4,0.3,2.2,0.3
			c1.3,0,2.3-0.2,2.9-0.7c0.6-0.5,0.8-1,0.8-1.7c0-0.6-0.3-1.1-0.9-1.5s-1.5-0.7-2.8-0.9c-1.6-0.2-2.8-0.7-3.6-1.3
			c-0.8-0.6-1.2-1.4-1.2-2.2c0-0.8,0.2-1.5,0.6-2c0.4-0.6,0.9-1,1.6-1.2c0.7-0.3,1.5-0.4,2.4-0.4c1.1,0,2,0.2,2.8,0.6
			s1.4,0.9,1.8,1.6c0.1,0.2,0.2,0.3,0.1,0.5c0,0.2-0.2,0.3-0.4,0.4c-0.2,0.1-0.3,0.1-0.5,0.1c-0.2,0-0.3-0.1-0.5-0.3
			c-0.4-0.5-0.9-0.9-1.5-1.2c-0.6-0.3-1.2-0.4-2-0.4c-1,0-1.8,0.2-2.4,0.6c-0.6,0.4-0.8,1-0.8,1.6c0,0.4,0.1,0.8,0.3,1.1
			c0.2,0.3,0.6,0.6,1.1,0.8s1.2,0.4,2.1,0.5c1.2,0.2,2.1,0.4,2.8,0.8c0.7,0.4,1.2,0.8,1.5,1.3c0.3,0.5,0.4,1,0.4,1.6
			c0,0.8-0.2,1.4-0.7,2s-1.1,1-1.9,1.3C774.3,169.4,773.4,169.6,772.5,169.6z"/>
		<path class="st1" d="M779.9,158.1c-0.2,0-0.3-0.1-0.5-0.2s-0.2-0.3-0.2-0.5c0-0.2,0.1-0.3,0.2-0.5s0.3-0.2,0.5-0.2h6.5
			c0.2,0,0.3,0.1,0.5,0.2s0.2,0.3,0.2,0.5c0,0.2-0.1,0.3-0.2,0.5s-0.3,0.2-0.5,0.2H779.9z M786.3,169.4c-0.9,0-1.7-0.2-2.4-0.6
			s-1.2-0.9-1.6-1.6c-0.4-0.7-0.6-1.5-0.6-2.4v-12c0-0.2,0.1-0.4,0.2-0.5c0.1-0.1,0.3-0.2,0.5-0.2c0.2,0,0.4,0.1,0.5,0.2
			c0.1,0.1,0.2,0.3,0.2,0.5v12c0,0.9,0.3,1.7,0.9,2.3c0.6,0.6,1.3,0.9,2.2,0.9h0.5c0.2,0,0.4,0.1,0.5,0.2c0.1,0.1,0.2,0.3,0.2,0.5
			c0,0.2-0.1,0.4-0.2,0.5c-0.1,0.1-0.3,0.2-0.5,0.2H786.3z"/>
		<path class="st1" d="M796.4,169.6c-1.3,0-2.4-0.3-3.4-0.9c-1-0.6-1.8-1.4-2.3-2.4s-0.8-2.2-0.8-3.5c0-1.3,0.3-2.5,0.8-3.5
			s1.3-1.8,2.2-2.4s2-0.9,3.2-0.9c1.2,0,2.2,0.3,3.1,0.8c0.9,0.6,1.6,1.3,2.1,2.3s0.8,2.1,0.8,3.4c0,0.2-0.1,0.4-0.2,0.5
			c-0.1,0.1-0.3,0.2-0.5,0.2h-10.6v-1.2h11l-1.1,0.8c0-1-0.1-2-0.5-2.8c-0.4-0.8-0.9-1.4-1.6-1.9c-0.7-0.5-1.5-0.7-2.5-0.7
			c-0.9,0-1.7,0.2-2.4,0.7s-1.3,1.1-1.7,1.9c-0.4,0.8-0.6,1.7-0.6,2.8c0,1,0.2,2,0.6,2.8c0.4,0.8,1,1.4,1.8,1.9
			c0.8,0.5,1.6,0.7,2.6,0.7c0.6,0,1.3-0.1,1.9-0.3c0.6-0.2,1.1-0.5,1.5-0.9c0.1-0.1,0.3-0.2,0.5-0.2c0.2,0,0.3,0,0.5,0.2
			c0.2,0.1,0.3,0.3,0.3,0.5c0,0.2-0.1,0.3-0.2,0.5c-0.5,0.5-1.2,0.8-2,1.2C797.9,169.4,797.2,169.6,796.4,169.6z M795.6,154.4
			c-0.2,0-0.4-0.1-0.5-0.2c-0.1-0.1-0.2-0.3-0.2-0.5c0-0.2,0.1-0.3,0.2-0.5l3-3c0.1-0.1,0.3-0.2,0.5-0.2s0.4,0.1,0.5,0.2
			c0.1,0.1,0.2,0.3,0.2,0.5c0,0.1,0,0.2,0,0.3c0,0.1-0.1,0.2-0.2,0.3l-3,3C796,154.3,795.8,154.4,795.6,154.4z"/>
		<path class="st1" d="M804.2,158.1c-0.2,0-0.3-0.1-0.5-0.2s-0.2-0.3-0.2-0.5c0-0.2,0.1-0.3,0.2-0.5s0.3-0.2,0.5-0.2h6.5
			c0.2,0,0.3,0.1,0.5,0.2s0.2,0.3,0.2,0.5c0,0.2-0.1,0.3-0.2,0.5s-0.3,0.2-0.5,0.2H804.2z M810.6,169.4c-0.9,0-1.7-0.2-2.4-0.6
			s-1.2-0.9-1.6-1.6c-0.4-0.7-0.6-1.5-0.6-2.4v-12c0-0.2,0.1-0.4,0.2-0.5c0.1-0.1,0.3-0.2,0.5-0.2c0.2,0,0.4,0.1,0.5,0.2
			c0.1,0.1,0.2,0.3,0.2,0.5v12c0,0.9,0.3,1.7,0.9,2.3c0.6,0.6,1.3,0.9,2.2,0.9h0.5c0.2,0,0.4,0.1,0.5,0.2c0.1,0.1,0.2,0.3,0.2,0.5
			c0,0.2-0.1,0.4-0.2,0.5c-0.1,0.1-0.3,0.2-0.5,0.2H810.6z"/>
		<path class="st1" d="M816.1,153.5c-0.3,0-0.6-0.1-0.8-0.3c-0.2-0.2-0.3-0.5-0.3-0.8c0-0.4,0.1-0.6,0.3-0.8
			c0.2-0.2,0.5-0.3,0.8-0.3c0.3,0,0.5,0.1,0.8,0.3c0.2,0.2,0.3,0.5,0.3,0.8c0,0.3-0.1,0.6-0.3,0.8
			C816.7,153.4,816.4,153.5,816.1,153.5z M816.1,169.4c-0.2,0-0.4-0.1-0.5-0.2c-0.1-0.1-0.2-0.3-0.2-0.5V157c0-0.2,0.1-0.4,0.2-0.5
			c0.1-0.1,0.3-0.2,0.5-0.2c0.2,0,0.4,0.1,0.5,0.2c0.1,0.1,0.2,0.3,0.2,0.5v11.7c0,0.2-0.1,0.4-0.2,0.5S816.3,169.4,816.1,169.4z"/>
		<path class="st1" d="M827.4,169.6c-1.2,0-2.4-0.3-3.4-0.9c-1-0.6-1.8-1.4-2.3-2.4s-0.9-2.1-0.9-3.4c0-1.3,0.3-2.4,0.8-3.4
			s1.3-1.8,2.2-2.4c0.9-0.6,2-0.9,3.2-0.9c1,0,2,0.2,2.8,0.6c0.8,0.4,1.6,1,2.2,1.8c0.1,0.2,0.2,0.3,0.1,0.5c0,0.2-0.1,0.3-0.3,0.4
			c-0.1,0.1-0.3,0.2-0.5,0.1c-0.2,0-0.3-0.1-0.5-0.3c-1-1.2-2.3-1.8-3.9-1.8c-0.9,0-1.8,0.2-2.5,0.7c-0.7,0.5-1.3,1.1-1.7,1.9
			c-0.4,0.8-0.6,1.7-0.6,2.8c0,1,0.2,1.9,0.6,2.7c0.4,0.8,1,1.4,1.8,1.9c0.8,0.5,1.6,0.7,2.7,0.7c0.7,0,1.3-0.1,1.9-0.3
			c0.6-0.2,1.1-0.5,1.5-0.9c0.1-0.1,0.3-0.2,0.5-0.2s0.3,0,0.5,0.2c0.2,0.1,0.2,0.3,0.3,0.5c0,0.2-0.1,0.3-0.2,0.5
			C830.6,169,829.2,169.6,827.4,169.6z"/>
		<path class="st1" d="M841.9,169.6c-1.3,0-2.4-0.3-3.4-0.9c-1-0.6-1.8-1.4-2.4-2.4c-0.6-1-0.9-2.2-0.9-3.4c0-1.3,0.3-2.4,0.9-3.4
			c0.6-1,1.4-1.8,2.4-2.4c1-0.6,2.2-0.9,3.4-0.9s2.4,0.3,3.4,0.9c1,0.6,1.8,1.4,2.4,2.4c0.6,1,0.9,2.2,0.9,3.4l-0.6,1
			c0,1.1-0.3,2.1-0.8,2.9s-1.3,1.5-2.2,2.1C844.1,169.3,843,169.6,841.9,169.6z M841.9,168.2c1,0,1.9-0.2,2.7-0.7s1.4-1.1,1.9-1.9
			c0.5-0.8,0.7-1.7,0.7-2.7c0-1-0.2-1.9-0.7-2.8c-0.5-0.8-1.1-1.4-1.9-1.9c-0.8-0.5-1.7-0.7-2.7-0.7c-1,0-1.9,0.2-2.7,0.7
			c-0.8,0.5-1.4,1.1-1.9,1.9c-0.5,0.8-0.7,1.7-0.7,2.8c0,1,0.2,1.9,0.7,2.7c0.5,0.8,1.1,1.4,1.9,1.9
			C840,168,840.9,168.2,841.9,168.2z M847.9,169.4c-0.2,0-0.4-0.1-0.5-0.2c-0.1-0.1-0.2-0.3-0.2-0.5v-4.4l0.5-1.4h1v5.8
			c0,0.2-0.1,0.4-0.2,0.5S848.1,169.4,847.9,169.4z"/>
	</g>
</g>
</svg>
